<svg height="512pt" viewBox="0 0 512 512.001" width="512pt" xmlns="http://www.w3.org/2000/svg"><path d="m512 256c0 141.386719-114.613281 256-256 256-141.382812 0-256-114.613281-256-256s114.617188-256 256-256c141.386719 0 256 114.613281 256 256zm0 0" fill="#93d632"/><path d="m511.964844 258.691406-198.6875-198.691406-48.144532 16v98.355469l-90.632812 97.621093-11.113281 96.664063 33.566406 33.566406-17.59375 51.707031 57.367187 57.367188c6.363282.472656 12.789063.71875 19.273438.71875 140.484375 0 254.519531-113.164062 255.964844-253.308594zm0 0" fill="#86c42b"/><path d="m218.5 472c-28.398438 0-51.5-23.101562-51.5-51.5v-21.5h30v21.5c0 11.855469 9.644531 21.5 21.5 21.5s21.5-9.644531 21.5-21.5v-33.5h-32c-35.011719 0-63.5-28.484375-63.5-63.5v-18.910156c0-16.855469 6.523438-32.707032 18.375-44.675782l77.125-83.566406v-88.347656c0-23.160156 18.839844-42 42-42s42 18.839844 42 42v15.046875c0 18.058594-6.992188 35.039063-19.695312 47.859375l-34.304688 37.167969v58.96875c29.542969 5.425781 52 31.367187 52 62.457031v14c0 31.089844-22.457031 57.03125-52 62.457031v34.542969c0 28.398438-23.101562 51.5-51.5 51.5zm21.5-251.417969-55.6875 60.320313c-6.328125 6.328125-9.8125 14.738281-9.8125 23.6875v18.910156c0 18.472656 15.027344 33.5 33.5 33.5h32v-75.417969c-9.035156 6.007813-15 16.277344-15 27.917969v12.5h-30v-12.5c0-28.582031 18.980469-52.8125 45-60.753906zm30 57.453125v76.933594c12.824219-4.703125 22-17.035156 22-31.46875v-14c0-14.433594-9.175781-26.765625-22-31.464844zm12-202.035156c-6.617188 0-12 5.382812-12 12v55.84375l12.871094-13.925781c7.175781-7.179688 11.128906-16.722657 11.128906-26.871094v-15.046875c0-6.617188-5.382812-12-12-12zm0 0" fill="#595959"/><path d="m304.304688 150.90625c12.703124-12.816406 19.695312-29.800781 19.695312-47.859375v-15.046875c0-23.160156-18.839844-42-42-42-9.855469 0-18.921875 3.421875-26.09375 9.128906v400.714844c8.726562-9.230469 14.09375-21.667969 14.09375-35.34375v-34.542969c29.542969-5.425781 52-31.367187 52-62.457031v-14c0-31.089844-22.457031-57.03125-52-62.457031v-58.96875zm-34.304688-62.90625c0-6.617188 5.382812-12 12-12s12 5.382812 12 12v15.046875c0 10.148437-3.953125 19.691406-11.128906 26.871094l-12.871094 13.925781zm22 221.5v14c0 14.433594-9.175781 26.765625-22 31.464844v-76.933594c12.824219 4.703125 22 17.035156 22 31.46875zm0 0" fill="#383838"/></svg>